PathFileType	4	(X/Y/Z)	./resultDataOpenSim/trcMotMarkerGrf/sub10/qtm-02-07.trc
DataRate	CameraRate	NumFrames	NumMarkers	Units	OrigDataRate	OrigDataStartFrame	OrigNumFrames
250.000000	250.000000	8	24	m	250.000000	1	514
Frame#	Time	L.Toe.Tip			R.Toe.Tip			L.Ankle.Lat			R.Ankle.Lat			L.Ankle.Med			R.Ankle.Med			L.Heel			R.Heel			L.Knee.Lat			R.Knee.Lat			L.Knee.Med			R.Knee.Med			L.Thigh.Upper			R.Thigh.Upper			L.ASIS			R.ASIS			V.Sacral			L.Acromium			R.Acromium			C7			L.Elbow			R.Elbow			L.Wrist.Lat			R.Wrist.Lat
		X1	Y1	Z1	X2	Y2	Z2	X3	Y3	Z3	X4	Y4	Z4	X5	Y5	Z5	X6	Y6	Z6	X7	Y7	Z7	X8	Y8	Z8	X9	Y9	Z9	X10	Y10	Z10	X11	Y11	Z11	X12	Y12	Z12	X13	Y13	Z13	X14	Y14	Z14	X15	Y15	Z15	X16	Y16	Z16	X17	Y17	Z17	X18	Y18	Z18	X19	Y19	Z19	X20	Y20	Z20	X21	Y21	Z21	X22	Y22	Z22	X23	Y23	Z23	X24	Y24	Z24

1	0	-1.46828	0.038395764	-0.14697765	-0.87662724	0.11296548	0.0093467626	-1.5987238	0.066343712	-0.1800946	-1.0089037	0.06993167	0.043394571	-1.5863145	0.089942745	-0.097369525	-1.0021857	0.10411037	-0.038899535	-1.6727667	0.043612478	-0.14941368	-1.0403422	0.025831968	-0.0056061247	-1.4550651	0.42670773	-0.21221778	-1.1429191	0.44800634	0.07358359	-1.4579367	0.40623177	-0.090561657	-1.1389371	0.4481343	-0.058510594	-1.3542719	0.80893588	-0.27232904	-1.3064084	0.82947763	0.11100019	-1.2801426	0.91446379	-0.2127958	-1.2462167	0.92501615	0.028312241	-1.4628178	0.93091072	-0.061521441	-1.3052055	1.3918193	-0.23859583	-1.3251525	1.3798952	0.082933478	-1.3966646	1.4180514	-0.087131029	-1.3167484	1.0484826	-0.32290726	-1.4567389	1.0555849	0.13431311	-1.1333408	0.90404785	-0.23581917	-1.3573803	0.84944654	0.21619657
2	0.004	-1.4682733	0.038386991	-0.14698425	-0.86732087	0.11478384	0.0095322148	-1.5984271	0.066832168	-0.18000815	-0.99955258	0.070529918	0.044462995	-1.5856439	0.090211937	-0.097219542	-0.99354487	0.10473856	-0.037897592	-1.6727834	0.045161426	-0.15002806	-1.0308947	0.026128922	-0.0042101651	-1.4520573	0.42616284	-0.2120532	-1.1377591	0.447435	0.074634845	-1.4551592	0.40560283	-0.09027337	-1.1348315	0.44674634	-0.0572786	-1.3506137	0.80802532	-0.27218376	-1.3010721	0.82843067	0.11123898	-1.2761235	0.91351796	-0.21288265	-1.2411861	0.92393551	0.028111316	-1.4582119	0.92973532	-0.06069602	-1.3002761	1.3907596	-0.2381021	-1.3204741	1.3787773	0.083432072	-1.3919237	1.41701	-0.086498298	-1.3112689	1.047424	-0.32242842	-1.452987	1.0547457	0.13450195	-1.127759	0.90388943	-0.23429625	-1.3546714	0.84859356	0.21726717
3	0.008	-1.4682587	0.038382273	-0.14699581	-0.85822094	0.11640568	0.0097636537	-1.5981406	0.067361218	-0.17992807	-0.99048228	0.071064795	0.045547528	-1.5850561	0.090548101	-0.097099879	-0.98514523	0.10528208	-0.036880305	-1.6727939	0.046764763	-0.15065406	-1.0217578	0.026412089	-0.0028325965	-1.4490888	0.42560378	-0.21190836	-1.1324386	0.44695675	0.075708855	-1.4520814	0.40497057	-0.090045501	-1.1305943	0.44546355	-0.056056295	-1.3469412	0.80713723	-0.27209121	-1.2956924	0.82741857	0.11148239	-1.2720655	0.91255664	-0.21298923	-1.2361457	0.92285712	0.027907197	-1.4535657	0.92857835	-0.059866932	-1.2953506	1.3897007	-0.23759886	-1.3157413	1.3776542	0.083905788	-1.3871848	1.4159708	-0.085921207	-1.3058085	1.0463527	-0.32191229	-1.4491924	1.0539296	0.13472253	-1.1221706	0.90368529	-0.23279618	-1.3519518	0.84773222	0.2183289
4	0.012	-1.4682324	0.038383665	-0.14701416	-0.84958739	0.11765091	0.010056113	-1.5978565	0.067953824	-0.17984952	-0.98185932	0.071493527	0.046653179	-1.5845705	0.090987438	-0.097001365	-0.97711609	0.10569366	-0.035835789	-1.6727913	0.048447935	-0.15128846	-1.0131202	0.026654666	-0.0014550839	-1.4461117	0.42503404	-0.21178624	-1.1268971	0.44660503	0.076786781	-1.4486648	0.40432907	-0.089889363	-1.1261232	0.44434614	-0.054853597	-1.3432538	0.80627176	-0.27206081	-1.2901731	0.82646539	0.11175116	-1.2679456	0.91157551	-0.2131208	-1.2310465	0.92179055	0.027716987	-1.4488581	0.92744445	-0.059044933	-1.2904344	1.3886502	-0.23709177	-1.3109308	1.3765221	0.084364914	-1.3824448	1.4149386	-0.085422934	-1.3003818	1.0452716	-0.32134301	-1.445326	1.0531411	0.13498602	-1.1165756	0.90342333	-0.23133224	-1.3492074	0.84686495	0.2193825
5	0.016	-1.4681964	0.038391284	-0.14703688	-0.84158873	0.11843526	0.010415351	-1.5975518	0.068602762	-0.17975082	-0.97374809	0.071792428	0.047778268	-1.5841668	0.091517164	-0.096886645	-0.9694922	0.10596215	-0.034751377	-1.6727683	0.050197606	-0.15190872	-1.0050559	0.026829052	-6.1245397e-05	-1.4430633	0.42446683	-0.21167804	-1.1211618	0.44636557	0.077823127	-1.4451093	0.40368287	-0.089761626	-1.12138	0.44341445	-0.053694844	-1.3395457	0.80542923	-0.27204138	-1.2844994	0.8255645	0.11204872	-1.2637797	0.91058386	-0.21328154	-1.2258644	0.92074761	0.027564906	-1.4440978	0.92633339	-0.058246453	-1.285535	1.3876174	-0.23658683	-1.3060688	1.3753874	0.084841559	-1.3777037	1.4139217	-0.084988905	-1.2950121	1.0441957	-0.32073802	-1.4413894	1.0523756	0.13528414	-1.1109949	0.90312461	-0.22990807	-1.3464207	0.84601087	0.22043432
6	0.02	-1.4681562	0.038400356	-0.14705545	-0.8342009	0.11877927	0.010869495	-1.5972112	0.069292154	-0.17962463	-0.96614906	0.071950818	0.04893336	-1.5837777	0.092102926	-0.096744693	-0.96226554	0.10608572	-0.033612246	-1.672717	0.051979834	-0.15248054	-0.99756732	0.026917134	0.0013465911	-1.4399154	0.42391561	-0.21156586	-1.1152594	0.44620525	0.078787987	-1.4416131	0.40304374	-0.089609197	-1.1163766	0.44266622	-0.052617969	-1.3357806	0.80462505	-0.27195501	-1.2787666	0.82468474	0.11235224	-1.2596046	0.90959235	-0.21348348	-1.2206421	0.91973049	0.027454024	-1.4392953	0.92525316	-0.057467661	-1.2806334	1.386599	-0.23607693	-1.3011882	1.3742644	0.085354513	-1.372948	1.4129296	-0.084567034	-1.2897129	1.0431359	-0.32011898	-1.4373996	1.051631	0.13560365	-1.1054481	0.90281064	-0.22852062	-1.3435665	0.8451852	0.22149126
7	0.024	-1.4681157	0.038397364	-0.1470565	-0.82731095	0.11873663	0.011459663	-1.5968561	0.070054316	-0.17953054	-0.95903877	0.071971706	0.05013883	-1.5832853	0.092736755	-0.096612688	-0.95542804	0.10605483	-0.032414996	-1.6726288	0.053756043	-0.15296545	-0.99063367	0.026905741	0.0027682323	-1.4366628	0.42339091	-0.21143088	-1.1092281	0.44608284	0.079670421	-1.4382187	0.40241503	-0.089414521	-1.1111422	0.44208509	-0.05164775	-1.3319221	0.80387415	-0.27174933	-1.2730373	0.82381285	0.11265466	-1.2554531	0.90859997	-0.21373441	-1.2154521	0.91873418	0.027364843	-1.434453	0.92421869	-0.056686483	-1.2756928	1.3855863	-0.23555028	-1.2962968	1.3731643	0.085898428	-1.3681575	1.4119692	-0.084096074	-1.2844753	1.0420913	-0.3194726	-1.4333734	1.0509122	0.13593777	-1.0999454	0.9024794	-0.22717199	-1.34063	0.844385	0.22255841
8	0.028	-1.4680754	0.038362817	-0.14702866	-0.82083064	0.11834536	0.01220676	-1.5965526	0.070995137	-0.17959481	-0.95239794	0.071867131	0.05140664	-1.5826244	0.093441496	-0.096534032	-0.9489791	0.1058586	-0.031167828	-1.6724937	0.055494367	-0.15332849	-0.98423621	0.026783002	0.0042129025	-1.4333323	0.42289514	-0.21127831	-1.1031694	0.44595633	0.080454054	-1.4348448	0.40180245	-0.08919509	-1.1056941	0.44165275	-0.050778275	-1.3279628	0.80318128	-0.27142044	-1.2672759	0.8229672	0.11298296	-1.2513245	0.90759867	-0.21402327	-1.2103242	0.91775396	0.027280677	-1.4295723	0.92323446	-0.055892628	-1.2706866	1.3845863	-0.23499623	-1.2913752	1.3720933	0.086458047	-1.3633231	1.4110415	-0.08355802	-1.2792698	1.0410568	-0.31875821	-1.4293151	1.0502301	0.13629004	-1.0944897	0.90211525	-0.22587042	-1.3376421	0.84359881	0.22363998
